<?xml version="1.0" encoding="utf-8"?>
<!-- Generator: Adobe Illustrator 20.0.0, SVG Export Plug-In . SVG Version: 6.00 Build 0)  -->
<svg version="1.1" id="Layer_1" xmlns="http://www.w3.org/2000/svg" xmlns:xlink="http://www.w3.org/1999/xlink" x="0px" y="0px"
	 viewBox="0 0 176 174" style="enable-background:new 0 0 176 174;" xml:space="preserve">
<style type="text/css">
	.st0{fill:#F47421;}
	.st1{fill:#F15A29;}
</style>
<g>
	<path class="st0" d="M79.2,8.1c5.3,0,10.7,0,16,0C96.1,8.4,97,8.9,98,9c31.3,4.2,57.1,26.7,65.3,57.1c1.2,4.3,2,8.7,2.9,13
		c0,5.3,0,10.7,0,16c-0.3,0.9-0.7,1.9-0.9,2.8c-5.4,32.7-24,54.1-55.2,64.7c-4.8,1.6-9.9,2.3-14.9,3.5c-5.3,0-10.7,0-16,0
		c-0.9-0.3-1.8-0.7-2.8-0.9c-28.8-4.5-49.4-20-61.3-46.4c-3.3-7.4-4.7-15.8-6.9-23.7c0-5.3,0-10.7,0-16c0.3-1.1,0.7-2.2,0.9-3.3
		c5.5-31.7,23.5-53,53.8-63.7C68.1,10.3,73.7,9.4,79.2,8.1z M154.1,87.3c0.1-36.7-29.7-66.8-66.4-67.1C50.8,19.9,20.4,50,20.3,86.9
		C20.2,123.6,50,153.7,86.8,154C123.6,154.3,154,124.3,154.1,87.3z"/>
	<path class="st0" d="M83.4,125.2c-10.8-0.5-22.2-6.3-29.3-19.5c-1.5-2.8-2.6-5.8,1-7.7c3.7-2,5.3,0.8,6.9,3.6
		c5.3,9.8,13.8,14.5,24.8,14.7c11.3,0.2,19.9-4.6,25.5-14.4c0.3-0.4,0.4-1.1,0.8-1.3c2-1,4.3-2.9,5.9-2.5c3.2,0.8,3.1,3.8,1.9,6.5
		C115.9,116.7,101.9,125.2,83.4,125.2z"/>
	<path class="st0" d="M99.6,65.7c0-5,4.3-9.2,9.3-9.2c4.9,0,9.2,4.4,9.2,9.3c0,4.8-4.5,9.2-9.3,9.2C103.9,75,99.6,70.6,99.6,65.7z"
		/>
	<path class="st0" d="M66.8,56.5c4.9-0.1,9.3,4.1,9.4,9c0.1,4.9-4.1,9.3-9,9.4c-4.9,0.1-9.2-4-9.3-9C57.8,60.8,61.7,56.6,66.8,56.5z
		"/>
</g>
<g>
	<g>
		<path class="st1" d="M-561,16.5c3.2,0,3.2-5,0-5C-564.2,11.5-564.2,16.5-561,16.5L-561,16.5z"/>
	</g>
</g>
</svg>
